# xmcd
#
# Track frame offsets:
#	151
#	21514
#	40189
#	54299
#	70919
#	84121
#	106616
#	124601
#	144654
#	165696
#	182924
#	199991
#	222004
#	243135
#
# Disc length: 3422 seconds
#
# Revision: 0
# Processed by: cddbd v1.4PL0 Copyright (c) Steve Scherf et al.
# Submitted via: EasyCDDAExtractor 4.6.9.1
#
DISCID=b90d5c0e
DTITLE=Alanis Morissette - Jagged Little Pill
DYEAR=1900
DGENRE=
TTITLE0=All I Really Want
TTITLE1=You Oughta Know
TTITLE2=Perfect
TTITLE3=Hand in My Pocket
TTITLE4=Right Through You
TTITLE5=Forgiven
TTITLE6=You Learn
TTITLE7=Head over Feet
TTITLE8=Mary Jane
TTITLE9=Ironic
TTITLE10=Not the Doctor
TTITLE11=Wake Up
TTITLE12=You Oughta Know
TTITLE13=Would you Forgive Me Love?
EXTD=
EXTT0=
EXTT1=
EXTT2=
EXTT3=
EXTT4=
EXTT5=
EXTT6=
EXTT7=
EXTT8=
EXTT9=
EXTT10=
EXTT11=
EXTT12=
EXTT13=
PLAYORDER=
